<svg xmlns="http://www.w3.org/2000/svg" viewBox="0 0 64 64">
  <defs>
    <linearGradient id="l" x1="0" y1="0" x2="0" y2="1">
      <stop offset="0" stop-color="#f7bf97"/>
      <stop offset="1" stop-color="#eeb0c8"/>
    </linearGradient>
    <linearGradient id="r" x1="0" y1="0" x2="0" y2="1">
      <stop offset="0" stop-color="#e7b9c9"/>
      <stop offset="1" stop-color="#c7a0d8"/>
    </linearGradient>
  </defs>
  <circle cx="21" cy="32" r="20" fill="url(#l)"/>
  <circle cx="43" cy="32" r="20" fill="url(#r)" fill-opacity=".85"/>
  <path d="M9 15h15v7h-7v4h6v7h-6v14H9Z" fill="#f08a3c" stroke="#7a3d8c" stroke-width="2" stroke-linejoin="round"/>
  <path d="M38 15h18v7h-5.5v25h-7V22H38Z" fill="#a256ad" stroke="#7a3d8c" stroke-width="2" stroke-linejoin="round"/>
  <path d="M32 38s-6-3.7-6-8a3.3 3.3 0 0 1 6-2 3.3 3.3 0 0 1 6 2c0 4.3-6 8-6 8Z" fill="#fff"/>
</svg>
